<svg width="102" height="102" viewBox="0 0 102 102" fill="none" xmlns="http://www.w3.org/2000/svg">
<g id="alphaGlyph1">
<path id="frameL" d="M11 1H1V101H11" stroke="black" stroke-width="2" stroke-miterlimit="10"/>
<path id="frameR" d="M91 1H101V101H91" stroke="black" stroke-width="2" stroke-miterlimit="10"/>
<g id="Alpha">
<path id="A" d="M29.12 78.66L27.12 79.19V81.48L29.12 82V83.82L20.74 81.56V79L29.12 76.73V78.66ZM22.48 80.28V80.38L25.65 81.2V79.47L22.48 80.28Z" fill="black"/>
<path id="L" d="M29.12 75.58H20.74V73.77H27.64V70.17H29.12V75.58Z" fill="black"/>
<path id="P" d="M29.12 68.57H20.74V65.3299C20.7317 64.9577 20.7963 64.5874 20.93 64.2399C21.0428 63.9332 21.224 63.6562 21.46 63.43C21.6991 63.2027 21.9861 63.0318 22.3 62.93C23.0192 62.7035 23.7907 62.7035 24.51 62.93C24.8238 63.0318 25.1108 63.2027 25.35 63.43C25.5859 63.6562 25.7672 63.9332 25.88 64.2399C26.0136 64.5874 26.0782 64.9577 26.07 65.3299V66.76H29.12V68.57ZM24.62 66.76V65.76C24.6547 65.4468 24.5689 65.1321 24.38 64.88C24.2703 64.7866 24.1429 64.7163 24.0055 64.6734C23.868 64.6304 23.7233 64.6156 23.58 64.63H23.22C23.0782 64.6164 22.9353 64.6316 22.7995 64.6746C22.6638 64.7175 22.5381 64.7874 22.43 64.88C22.2411 65.1321 22.1553 65.4468 22.19 65.76V66.76H24.62Z" fill="black"/>
<path id="H" d="M25.61 57.63V59.74H29.12V61.55H20.74V59.74H24.14V57.63H20.74V55.82H29.12V57.63H25.61Z" fill="black"/>
<path id="A_2" d="M29.12 49.86L27.12 50.39V52.68L29.12 53.2V55L20.74 52.74V50.19L29.12 47.92V49.86ZM22.48 51.48V51.58L25.65 52.4V50.67L22.48 51.48Z" fill="black"/>
</g>
<g id="Num">
<path id="N" d="M33.55 81.48V81.62H39.12V83.15H30.74V81L36.31 79.09V79H30.74V77.47H39.12V79.63L33.55 81.48Z" fill="black"/>
<path id="U" d="M30.74 74.22H36C36.27 74.22 36.51 74.22 36.73 74.22C36.9241 74.2106 37.1143 74.163 37.29 74.08C37.4385 74.0048 37.5606 73.8862 37.64 73.74C37.7385 73.5453 37.7833 73.3278 37.77 73.11C37.782 72.8955 37.7372 72.6816 37.64 72.49C37.5633 72.3417 37.4404 72.2224 37.29 72.15C37.1151 72.0636 36.9247 72.0126 36.73 72C36.51 72 36.27 72 36 72H30.7V70.2H35.76C36.2692 70.1945 36.7779 70.2347 37.28 70.32C37.6707 70.3757 38.0416 70.5268 38.36 70.76C38.6577 70.99 38.8805 71.3033 39 71.66C39.2995 72.6376 39.2995 73.6824 39 74.66C38.8805 75.0168 38.6577 75.33 38.36 75.56C38.0395 75.7894 37.6696 75.9402 37.28 76C36.7776 76.0816 36.2689 76.1184 35.76 76.11H30.7L30.74 74.22Z" fill="black"/>
<path id="M" d="M35.38 64.31L33.04 64.22V64.32L37.35 65.88L33 67.44V67.55L35.34 67.46H39.08V69H30.7V66.87L33.52 65.87V65.77L30.7 64.77V62.77H39.08V64.33L35.38 64.31Z" fill="black"/>
</g>
<g id="Eric">
<path id="E" d="M49.12 82.92H40.74V77.57H42.22V81.12H44.14V77.69H45.61V81.12H47.61V77.57H49.09L49.12 82.92Z" fill="black"/>
<path id="C" d="M49.2601 58.49C49.2937 58.9663 49.2079 59.4434 49.0106 59.8782C48.8133 60.313 48.5107 60.6917 48.13 60.98C47.1471 61.5113 46.0474 61.7895 44.93 61.7895C43.8127 61.7895 42.713 61.5113 41.7301 60.98C41.3474 60.6936 41.0432 60.3152 40.8457 59.8799C40.6481 59.4447 40.5636 58.9666 40.6 58.49C40.59 58.103 40.6475 57.7172 40.77 57.35C40.8763 57.0344 41.0427 56.7424 41.2601 56.49C41.4708 56.2453 41.7251 56.0419 42.0101 55.89C42.3287 55.7327 42.6642 55.6119 43.0101 55.53L43.4201 57.21C43.2296 57.2532 43.0424 57.3101 42.86 57.38C42.7044 57.4356 42.5591 57.5167 42.43 57.62C42.3121 57.7226 42.2168 57.8486 42.15 57.99C42.0777 58.1605 42.0436 58.3449 42.05 58.53C42.0423 58.7333 42.0915 58.9347 42.1923 59.1114C42.293 59.2881 42.4412 59.4331 42.62 59.53C43.1153 59.7545 43.657 59.8574 44.2001 59.83H45.66C46.203 59.8562 46.7445 59.7534 47.24 59.53C47.4189 59.4331 47.5671 59.2881 47.6678 59.1114C47.7685 58.9347 47.8178 58.7333 47.81 58.53C47.8296 58.3575 47.804 58.1829 47.7356 58.0233C47.6672 57.8638 47.5585 57.7248 47.4201 57.62C47.1203 57.4126 46.7791 57.2727 46.4201 57.21L46.83 55.53C47.1766 55.6094 47.5123 55.7303 47.83 55.89C48.1193 56.0442 48.3798 56.2472 48.6 56.49C48.8178 56.7404 48.9812 57.0332 49.08 57.35C49.2009 57.7179 49.2617 58.1028 49.2601 58.49Z" fill="black"/>
<path id="R" d="M49.12 74V75.77H40.74V72.53C40.7318 72.1578 40.7963 71.7875 40.93 71.44C41.0428 71.1332 41.2241 70.8562 41.46 70.63C41.6992 70.4027 41.9862 70.2319 42.3 70.13C42.6552 70.0147 43.0266 69.9573 43.4 69.96C43.9364 69.9449 44.4663 70.08 44.93 70.35C45.3405 70.591 45.6415 70.9817 45.77 71.44L49.12 69.8V71.8L46 73.17V74H49.12ZM44.62 73C44.6518 72.6871 44.5662 72.3735 44.38 72.12C44.1548 71.9389 43.8678 71.8528 43.58 71.88H43.22C42.9355 71.8544 42.6522 71.9405 42.43 72.12C42.2438 72.3735 42.1583 72.6871 42.19 73V74H44.62V73Z" fill="black"/>
<path id="I" d="M49.12 68.58H47.78V66.78H42.07V68.58H40.74V63.18H42.07V65H47.78V63.2H49.12V68.58Z" fill="black"/>
</g>
<path id="l1" d="M61 81V21" stroke="black" stroke-miterlimit="10"/>
<path id="l2" d="M71.5 81V11" stroke="black" stroke-miterlimit="10"/>
<path id="l3" d="M81.5 81V21" stroke="black" stroke-miterlimit="10"/>
</g>
</svg>
