<svg width="82" height="82" viewBox="0 0 82 82" fill="none" xmlns="http://www.w3.org/2000/svg">
<g id="cGrid">
<path id="c1" d="M1 2C1.55228 2 2 1.55228 2 1C2 0.447715 1.55228 0 1 0C0.447715 0 0 0.447715 0 1C0 1.55228 0.447715 2 1 2Z" fill="black"/>
<path id="c2" d="M21 2C21.5523 2 22 1.55228 22 1C22 0.447715 21.5523 0 21 0C20.4477 0 20 0.447715 20 1C20 1.55228 20.4477 2 21 2Z" fill="black"/>
<path id="c3" d="M41 2C41.5523 2 42 1.55228 42 1C42 0.447715 41.5523 0 41 0C40.4477 0 40 0.447715 40 1C40 1.55228 40.4477 2 41 2Z" fill="black"/>
<path id="c4" d="M61 2C61.5523 2 62 1.55228 62 1C62 0.447715 61.5523 0 61 0C60.4477 0 60 0.447715 60 1C60 1.55228 60.4477 2 61 2Z" fill="black"/>
<path id="c5" d="M81 2C81.5523 2 82 1.55228 82 1C82 0.447715 81.5523 0 81 0C80.4477 0 80 0.447715 80 1C80 1.55228 80.4477 2 81 2Z" fill="black"/>
<path id="c6" d="M1 22C1.55228 22 2 21.5523 2 21C2 20.4477 1.55228 20 1 20C0.447715 20 0 20.4477 0 21C0 21.5523 0.447715 22 1 22Z" fill="black"/>
<path id="c7" d="M21 22C21.5523 22 22 21.5523 22 21C22 20.4477 21.5523 20 21 20C20.4477 20 20 20.4477 20 21C20 21.5523 20.4477 22 21 22Z" fill="black"/>
<path id="c8" d="M41 22C41.5523 22 42 21.5523 42 21C42 20.4477 41.5523 20 41 20C40.4477 20 40 20.4477 40 21C40 21.5523 40.4477 22 41 22Z" fill="black"/>
<path id="c9" d="M61 22C61.5523 22 62 21.5523 62 21C62 20.4477 61.5523 20 61 20C60.4477 20 60 20.4477 60 21C60 21.5523 60.4477 22 61 22Z" fill="black"/>
<path id="c10" d="M81 22C81.5523 22 82 21.5523 82 21C82 20.4477 81.5523 20 81 20C80.4477 20 80 20.4477 80 21C80 21.5523 80.4477 22 81 22Z" fill="black"/>
<path id="c11" d="M1 42C1.55228 42 2 41.5523 2 41C2 40.4477 1.55228 40 1 40C0.447715 40 0 40.4477 0 41C0 41.5523 0.447715 42 1 42Z" fill="black"/>
<path id="c12" d="M21 42C21.5523 42 22 41.5523 22 41C22 40.4477 21.5523 40 21 40C20.4477 40 20 40.4477 20 41C20 41.5523 20.4477 42 21 42Z" fill="black"/>
<path id="c13" d="M41 42C41.5523 42 42 41.5523 42 41C42 40.4477 41.5523 40 41 40C40.4477 40 40 40.4477 40 41C40 41.5523 40.4477 42 41 42Z" fill="black"/>
<path id="c14" d="M61 42C61.5523 42 62 41.5523 62 41C62 40.4477 61.5523 40 61 40C60.4477 40 60 40.4477 60 41C60 41.5523 60.4477 42 61 42Z" fill="black"/>
<path id="c15" d="M81 42C81.5523 42 82 41.5523 82 41C82 40.4477 81.5523 40 81 40C80.4477 40 80 40.4477 80 41C80 41.5523 80.4477 42 81 42Z" fill="black"/>
<path id="c16" d="M1 62C1.55228 62 2 61.5523 2 61C2 60.4477 1.55228 60 1 60C0.447715 60 0 60.4477 0 61C0 61.5523 0.447715 62 1 62Z" fill="black"/>
<path id="c17" d="M21 62C21.5523 62 22 61.5523 22 61C22 60.4477 21.5523 60 21 60C20.4477 60 20 60.4477 20 61C20 61.5523 20.4477 62 21 62Z" fill="black"/>
<path id="c18" d="M41 62C41.5523 62 42 61.5523 42 61C42 60.4477 41.5523 60 41 60C40.4477 60 40 60.4477 40 61C40 61.5523 40.4477 62 41 62Z" fill="black"/>
<path id="c19" d="M61 62C61.5523 62 62 61.5523 62 61C62 60.4477 61.5523 60 61 60C60.4477 60 60 60.4477 60 61C60 61.5523 60.4477 62 61 62Z" fill="black"/>
<path id="c20" d="M81 62C81.5523 62 82 61.5523 82 61C82 60.4477 81.5523 60 81 60C80.4477 60 80 60.4477 80 61C80 61.5523 80.4477 62 81 62Z" fill="black"/>
<path id="c21" d="M1 82C1.55228 82 2 81.5523 2 81C2 80.4477 1.55228 80 1 80C0.447715 80 0 80.4477 0 81C0 81.5523 0.447715 82 1 82Z" fill="black"/>
<path id="c22" d="M21 82C21.5523 82 22 81.5523 22 81C22 80.4477 21.5523 80 21 80C20.4477 80 20 80.4477 20 81C20 81.5523 20.4477 82 21 82Z" fill="black"/>
<path id="c23" d="M41 82C41.5523 82 42 81.5523 42 81C42 80.4477 41.5523 80 41 80C40.4477 80 40 80.4477 40 81C40 81.5523 40.4477 82 41 82Z" fill="black"/>
<path id="c24" d="M61 82C61.5523 82 62 81.5523 62 81C62 80.4477 61.5523 80 61 80C60.4477 80 60 80.4477 60 81C60 81.5523 60.4477 82 61 82Z" fill="black"/>
<path id="c25" d="M81 82C81.5523 82 82 81.5523 82 81C82 80.4477 81.5523 80 81 80C80.4477 80 80 80.4477 80 81C80 81.5523 80.4477 82 81 82Z" fill="black"/>
</g>
</svg>
