<svg width="46" height="45" viewBox="0 0 46 45" fill="none" xmlns="http://www.w3.org/2000/svg">
<path d="M8.14583 0H37.8542C42.3583 0 46 3.65385 46 8.17308V36.8269C46 41.3462 42.3583 45 37.8542 45H8.14583C3.64167 45 0 41.3462 0 36.8269V8.17308C0 3.65385 3.64167 0 8.14583 0Z" fill="black"/>
<path d="M18.4767 26.9231H11.3467L9.89001 31.4615C9.85167 31.6346 9.69834 31.75 9.52584 31.7308H5.92251C5.71167 31.7308 5.65417 31.6154 5.71167 31.3846L11.8833 13.6346C11.9408 13.4423 11.9983 13.2692 12.075 13.0384C12.1517 12.6346 12.19 12.2115 12.19 11.7884C12.1708 11.6923 12.2475 11.5961 12.3433 11.5769H12.4008H17.3075C17.4417 11.5769 17.5375 11.6346 17.5567 11.7308L24.5525 31.3461C24.61 31.5577 24.5525 31.6538 24.3608 31.6538H20.355C20.2208 31.6731 20.0867 31.5769 20.0483 31.4423L18.4767 26.8269V26.9231ZM12.4583 23.0961H17.3267C17.2117 22.6923 17.0583 22.2115 16.8858 21.7115C16.7133 21.1923 16.5408 20.6346 16.3683 20.0577C16.1767 19.4615 16.0042 18.8846 15.8125 18.2884C15.6208 17.6923 15.4483 17.1346 15.295 16.5769C15.1417 16.0384 15.0075 15.5384 14.8733 15.0769H14.835C14.6625 15.9038 14.4517 16.7308 14.1833 17.5577C13.8958 18.4808 13.6083 19.4423 13.3017 20.4038C13.0525 21.3846 12.7458 22.2884 12.4583 23.0961Z" fill="white"/>
<path d="M35.8417 25.1923H29.7659C29.8425 25.7884 30.0342 26.3846 30.36 26.9038C30.705 27.4231 31.1842 27.8269 31.7592 28.0577C32.5259 28.3846 33.3692 28.5577 34.2125 28.5384C34.8834 28.5192 35.5542 28.4615 36.2059 28.3269C36.8 28.25 37.375 28.0961 37.9117 27.8846C38.0075 27.8077 38.065 27.8461 38.065 28.0384V30.9807C38.065 31.0577 38.0459 31.1346 38.0267 31.2115C37.9884 31.2692 37.95 31.3077 37.8925 31.3461C37.2792 31.6154 36.6467 31.8077 35.9759 31.9231C35.075 32.0961 34.1742 32.173 33.2542 32.1538C31.7975 32.1538 30.5709 31.923 29.5742 31.4807C28.635 31.0769 27.8109 30.4423 27.1592 29.6538C26.5459 28.9038 26.105 28.0577 25.8367 27.1346C25.5684 26.2307 25.4342 25.2884 25.4342 24.3269C25.4342 23.2884 25.5875 22.2692 25.9134 21.2692C26.22 20.3077 26.6992 19.4231 27.3509 18.6346C27.9834 17.8654 28.7692 17.25 29.67 16.8077C30.5709 16.3654 31.6442 16.2115 32.8709 16.2115C33.8867 16.1923 34.9025 16.3846 35.8417 16.8077C36.6275 17.1538 37.3175 17.6731 37.8542 18.3461C38.3525 19 38.755 19.7307 39.0042 20.5384C39.2534 21.3077 39.3684 22.0961 39.3684 22.8846C39.3684 23.3461 39.3492 23.75 39.33 24.1154C39.2917 24.4807 39.2725 24.75 39.2534 24.9231C39.2342 25.0577 39.1192 25.1731 38.985 25.1731C38.87 25.1731 38.6592 25.1923 38.3525 25.2115C38.0459 25.25 37.6817 25.2692 37.2409 25.2692C36.8 25.2692 36.34 25.1923 35.8417 25.1923ZM29.7659 22.3846H33.81C34.3084 22.3846 34.6725 22.3846 34.9025 22.3654C35.0559 22.3461 35.2092 22.3077 35.3434 22.2115V22.0192C35.3434 21.7692 35.305 21.5384 35.2284 21.3077C34.8834 20.2307 33.8675 19.5 32.7367 19.5384C31.6825 19.4807 30.6859 20.0384 30.1875 21C29.9575 21.4423 29.8234 21.9038 29.7659 22.3846Z" fill="white"/>
</svg>
