<svg width="51" height="45" viewBox="0 0 51 45" fill="none" xmlns="http://www.w3.org/2000/svg">
<path d="M50.271 22.8841C50.271 19.6084 46.1619 16.5041 39.8618 14.579C41.3157 8.16882 40.6695 3.06886 37.8224 1.43607C37.1661 1.05307 36.3988 0.871651 35.5608 0.871651V3.11926C36.0253 3.11926 36.3988 3.20997 36.7118 3.38131C38.0849 4.16747 38.6806 7.16092 38.2161 11.0111C38.1051 11.9585 37.9234 12.9563 37.7012 13.9743C35.7224 13.4905 33.5618 13.1176 31.2901 12.8757C29.9272 11.0111 28.5137 9.31781 27.0901 7.83621C30.3815 4.78229 33.4709 3.10918 35.5709 3.10918V0.861572C32.7945 0.861572 29.1598 2.83705 25.4848 6.26389C21.8098 2.85721 18.1752 0.901888 15.3987 0.901888V3.14949C17.4886 3.14949 20.5882 4.81252 23.8795 7.84629C22.4661 9.32789 21.0526 11.0111 19.7098 12.8757C17.428 13.1176 15.2675 13.4905 13.2886 13.9844C13.0564 12.9765 12.8848 11.9988 12.7636 11.0615C12.2891 7.21131 12.8747 4.21786 14.2376 3.42163C14.5405 3.24021 14.9343 3.15957 15.3987 3.15957V0.911967C14.5506 0.911967 13.7833 1.09339 13.117 1.47639C10.2799 3.10918 9.64387 8.19905 11.1078 14.5891C4.82798 16.5243 0.739014 19.6185 0.739014 22.8841C0.739014 26.1597 4.84817 29.2641 11.1482 31.1891C9.69435 37.5994 10.3405 42.6993 13.1876 44.3321C13.8439 44.7151 14.6112 44.8965 15.4593 44.8965C18.2357 44.8965 21.8704 42.921 25.5454 39.4942C29.2204 42.9009 32.8551 44.8562 35.6315 44.8562C36.4796 44.8562 37.2469 44.6748 37.9133 44.2918C40.7503 42.659 41.3864 37.5691 39.9224 31.1791C46.1821 29.254 50.271 26.1497 50.271 22.8841ZM37.1258 16.1614C36.7522 17.4616 36.2878 18.8021 35.7628 20.1426C35.3488 19.3363 34.9147 18.53 34.4402 17.7237C33.9757 16.9173 33.481 16.1312 32.9863 15.3652C34.42 15.5768 35.8031 15.8389 37.1258 16.1614ZM32.5017 26.8955C31.7142 28.2562 30.9065 29.5463 30.0685 30.7457C28.5642 30.8767 27.0396 30.9472 25.505 30.9472C23.9805 30.9472 22.456 30.8767 20.9617 30.7558C20.1237 29.5564 19.3059 28.2763 18.5184 26.9257C17.7511 25.6054 17.0545 24.2649 16.4184 22.9143C17.0444 21.5637 17.7511 20.2132 18.5083 18.8928C19.2958 17.5322 20.1035 16.2421 20.9415 15.0427C22.4459 14.9116 23.9704 14.8411 25.505 14.8411C27.0295 14.8411 28.5541 14.9116 30.0483 15.0326C30.8863 16.232 31.7041 17.512 32.4916 18.8626C33.2589 20.1829 33.9555 21.5234 34.5916 22.874C33.9555 24.2246 33.2589 25.5752 32.5017 26.8955ZM35.7628 25.5852C36.308 26.9358 36.7724 28.2864 37.156 29.5967C35.8334 29.9192 34.4402 30.1913 32.9964 30.403C33.4911 29.6269 33.9858 28.8307 34.4503 28.0143C34.9147 27.208 35.3488 26.3916 35.7628 25.5852ZM25.5252 36.3395C24.5863 35.3719 23.6473 34.2935 22.7185 33.1142C23.6271 33.1545 24.556 33.1848 25.4949 33.1848C26.444 33.1848 27.3829 33.1646 28.3017 33.1142C27.393 34.2935 26.4541 35.3719 25.5252 36.3395ZM18.0136 30.403C16.58 30.1913 15.1968 29.9293 13.8742 29.6068C14.2477 28.3066 14.7122 26.9661 15.2372 25.6256C15.6511 26.4319 16.0853 27.2382 16.5598 28.0445C17.0343 28.8508 17.5189 29.637 18.0136 30.403ZM25.4747 9.42868C26.4137 10.3963 27.3526 11.4747 28.2815 12.6539C27.3728 12.6136 26.444 12.5834 25.505 12.5834C24.556 12.5834 23.617 12.6036 22.6983 12.6539C23.6069 11.4747 24.5459 10.3963 25.4747 9.42868ZM18.0035 15.3652C17.5088 16.1413 17.0141 16.9375 16.5497 17.7539C16.0853 18.5602 15.6511 19.3665 15.2372 20.1728C14.692 18.8223 14.2276 17.4717 13.8439 16.1614C15.1665 15.849 16.5598 15.5768 18.0035 15.3652ZM8.86646 27.984C5.29241 26.4621 2.98037 24.4665 2.98037 22.8841C2.98037 21.3017 5.29241 19.296 8.86646 17.7841C9.73474 17.4112 10.6838 17.0786 11.6631 16.7662C12.2386 18.7416 12.9958 20.7977 13.9348 22.9042C13.0059 25.0007 12.2588 27.0467 11.6934 29.0121C10.6939 28.6996 9.74483 28.357 8.86646 27.984ZM14.2982 42.3869C12.9251 41.6007 12.3295 38.6073 12.7939 34.7571C12.9049 33.8097 13.0867 32.8119 13.3088 31.7939C15.2877 32.2777 17.4482 32.6506 19.7199 32.8925C21.0829 34.7571 22.4963 36.4504 23.9199 37.932C20.6285 40.9859 17.5391 42.659 15.4391 42.659C14.9848 42.6489 14.6011 42.5582 14.2982 42.3869ZM38.2464 34.7067C38.721 38.5569 38.1354 41.5503 36.7724 42.3465C36.4695 42.528 36.0757 42.6086 35.6113 42.6086C33.5214 42.6086 30.4219 40.9456 27.1305 37.9118C28.544 36.4302 29.9574 34.747 31.3002 32.8824C33.582 32.6405 35.7426 32.2676 37.7214 31.7737C37.9536 32.7917 38.1354 33.7694 38.2464 34.7067ZM42.1335 27.984C41.2652 28.357 40.3162 28.6896 39.3368 29.002C38.7613 27.0265 38.0041 24.9704 37.0652 22.8639C37.994 20.7675 38.7411 18.7215 39.3065 16.7561C40.3061 17.0685 41.2551 17.4112 42.1436 17.7841C45.7176 19.3061 48.0297 21.3017 48.0297 22.8841C48.0196 24.4665 45.7075 26.4722 42.1335 27.984Z" fill="black"/>
<path d="M25.4949 27.4902C28.0432 27.4902 30.1089 25.428 30.1089 22.8841C30.1089 20.3402 28.0432 18.278 25.4949 18.278C22.9467 18.278 20.881 20.3402 20.881 22.8841C20.881 25.428 22.9467 27.4902 25.4949 27.4902Z" fill="black"/>
</svg>
