<svg width="32" height="45" viewBox="0 0 32 45" fill="none" xmlns="http://www.w3.org/2000/svg">
<path fill-rule="evenodd" clip-rule="evenodd" d="M14.597 0.0837402H23.3488C28.0795 0.0837402 31.9144 3.83914 31.9144 8.47167C31.9144 13.1042 28.0795 16.8596 23.3488 16.8596H14.597V0.0837402ZM17.4028 2.83129V14.1121H23.3488C26.5299 14.1121 29.1087 11.5868 29.1087 8.47167C29.1087 5.35658 26.5299 2.83129 23.3488 2.83129H17.4028Z" fill="black"/>
<path fill-rule="evenodd" clip-rule="evenodd" d="M0.0854492 8.47167C0.0854492 3.83914 3.92043 0.0837402 8.65112 0.0837402H17.4028V16.8596H8.65112C3.92043 16.8596 0.0854492 13.1042 0.0854492 8.47167ZM8.65112 2.83129C5.47001 2.83129 2.89122 5.35658 2.89122 8.47167C2.89122 11.5868 5.47001 14.1121 8.65112 14.1121H14.5971V2.83129H8.65112Z" fill="black"/>
<path fill-rule="evenodd" clip-rule="evenodd" d="M0.0854492 22.5002C0.0854492 17.8676 3.92043 14.1122 8.65112 14.1122H17.4028V30.8881H8.65112C3.92042 30.8881 0.0854492 27.1327 0.0854492 22.5002ZM8.65112 16.8598C5.47 16.8598 2.89122 19.3851 2.89122 22.5002C2.89122 25.6153 5.47001 28.1406 8.65112 28.1406H14.5971V16.8598H8.65112Z" fill="black"/>
<path fill-rule="evenodd" clip-rule="evenodd" d="M0.0854492 36.5283C0.0854492 31.8958 3.92043 28.1404 8.65112 28.1404H17.4028V36.4372C17.4028 41.1315 13.4676 44.9163 8.69734 44.9163C3.9784 44.9163 0.0854492 41.1723 0.0854492 36.5283ZM8.65112 30.8879C5.47001 30.8879 2.89122 33.4132 2.89122 36.5283C2.89122 39.632 5.50446 42.1687 8.69734 42.1687C11.9416 42.1687 14.5971 39.5912 14.5971 36.4372V30.8879H8.65112Z" fill="black"/>
<path fill-rule="evenodd" clip-rule="evenodd" d="M14.597 22.5002C14.597 17.8676 18.432 14.1122 23.1627 14.1122H23.3488C28.0795 14.1122 31.9144 17.8676 31.9144 22.5002C31.9144 27.1327 28.0795 30.8881 23.3488 30.8881H23.1627C18.432 30.8881 14.597 27.1327 14.597 22.5002ZM23.1627 16.8598C19.9816 16.8598 17.4028 19.3851 17.4028 22.5002C17.4028 25.6153 19.9816 28.1406 23.1627 28.1406H23.3488C26.5299 28.1406 29.1087 25.6153 29.1087 22.5002C29.1087 19.3851 26.5299 16.8598 23.3488 16.8598H23.1627Z" fill="black"/>
</svg>
